<svg width="30" height="30" viewBox="0 0 30 30" fill="none" xmlns="http://www.w3.org/2000/svg">
<path d="M15.4471 5C13.3347 5 11.601 6.73377 11.601 8.84615V9.61538H7.80288L7.75481 10.3365L6.98558 24.1827L6.9375 25H23.9567L23.9087 24.1827L23.1394 10.3365L23.0913 9.61538H19.2933V8.84615C19.2933 6.73377 17.5595 5 15.4471 5ZM15.4471 6.53846C16.7212 6.53846 17.7548 7.57212 17.7548 8.84615V9.61538H13.1394V8.84615C13.1394 7.57212 14.1731 6.53846 15.4471 6.53846ZM9.24519 11.1538H11.601V13.4615H13.1394V11.1538H17.7548V13.4615H19.2933V11.1538H21.649L22.3221 23.4615H8.57212L9.24519 11.1538Z" fill="#172342"/>
</svg>
