<svg width="28" height="28" viewBox="0 0 28 28" fill="none" xmlns="http://www.w3.org/2000/svg">
<path d="M14 0.666748C6.64932 0.666748 0.666626 6.64945 0.666626 14.0001C0.666626 21.3507 6.64932 27.3334 14 27.3334C21.3506 27.3334 27.3333 21.3507 27.3333 14.0001C27.3333 6.64945 21.3506 0.666748 14 0.666748ZM14 2.88897C20.1496 2.88897 25.1111 7.85042 25.1111 14.0001C25.1111 20.1497 20.1496 25.1112 14 25.1112C7.8503 25.1112 2.88885 20.1497 2.88885 14.0001C2.88885 7.85042 7.8503 2.88897 14 2.88897ZM10.3411 8.77005L8.76992 10.3412L12.4288 14.0001L8.76992 17.6589L10.3411 19.2301L14 15.5713L17.6588 19.2301L19.23 17.6589L15.5711 14.0001L19.23 10.3412L17.6588 8.77005L14 12.4289L10.3411 8.77005Z" fill="#172342"/>
</svg>
